<svg xmlns="http://www.w3.org/2000/svg" viewBox="0 0 71.69 71.69"><defs><style>.cls-1{fill:none;stroke:#65c5b4;stroke-miterlimit:10;stroke-width:2px;}.cls-2{fill:#65c5b4;}</style></defs><g id="Layer_2" data-name="Layer 2"><g id="DESKTOP"><circle class="cls-1" cx="35.84" cy="35.84" r="34.84"/><path class="cls-2" d="M22.82,57.41h26a1.21,1.21,0,0,0,1.21-1.21V47.64h5.21a3.26,3.26,0,0,0,3.25-3.26V29a3.26,3.26,0,0,0-3.25-3.26H50.07v-9.2a1.21,1.21,0,0,0-1.21-1.21h-26a1.21,1.21,0,0,0-1.2,1.21v9.2H16.41A3.26,3.26,0,0,0,13.15,29V44.38a3.26,3.26,0,0,0,3.26,3.26h5.21V56.2A1.21,1.21,0,0,0,22.82,57.41ZM47.65,55H24V41.79H47.65ZM24,17.69H47.65v8H24ZM16.41,45.22a.85.85,0,0,1-.84-.84V29a.85.85,0,0,1,.84-.84H55.28a.84.84,0,0,1,.83.84V44.38a.84.84,0,0,1-.83.84H50.07V40.58a1.21,1.21,0,0,0-1.21-1.21h-26a1.21,1.21,0,0,0-1.2,1.21v4.64Z"/><path class="cls-2" d="M48.86,31.63H45a1.21,1.21,0,0,0,0,2.42h3.9a1.21,1.21,0,0,0,0-2.42Z"/><path class="cls-2" d="M42.49,49.6H29.19a1.21,1.21,0,0,0,0,2.42h13.3a1.21,1.21,0,0,0,0-2.42Z"/><path class="cls-2" d="M42.49,44.76H29.19a1.21,1.21,0,0,0,0,2.42h13.3a1.21,1.21,0,0,0,0-2.42Z"/></g></g></svg>