<svg xmlns="http://www.w3.org/2000/svg" viewBox="0 0 989.41 640.45"><defs><style>.cls-1{fill:#fcd60b;}</style></defs><g id="Layer_2" data-name="Layer 2"><g id="DESKTOP"><path class="cls-1" d="M989.41,101.34l-61.84.52-61.84.45-123.67.56c-41.23.24-82.45.19-123.68.28l-123.68.18L371,103.16l-61.84-.09L278.27,103l-30.92-.13-123.67-.56-61.84-.45L0,101.34l61.84-.53,61.84-.45,123.67-.56,30.92-.14,30.92,0L371,99.52l123.67-.18,123.68.18c41.23.09,82.45,0,123.68.29l123.67.55,61.84.45Z"/><path class="cls-1" d="M989.41,212.81l-61.84.52-61.84.45-123.67.56c-41.23.24-82.45.19-123.68.28l-123.68.18L371,214.63l-61.84-.09-30.92-.06-30.92-.13-123.67-.56-61.84-.45L0,212.81l61.84-.53,61.84-.45,123.67-.56,30.92-.14,30.92,0L371,211l123.67-.18,123.68.18c41.23.09,82.45,0,123.68.29l123.67.55,61.84.45Z"/><path class="cls-1" d="M304,0l.3,20,.23,20,.44,40,.56,80.05c.37,53.37.42,106.74.47,160.11l-.11,80.06c-.12,26.69-.13,53.37-.35,80.06L305,560.39l-.45,40-.23,20-.3,20-.3-20-.23-20-.45-40-.56-80.05c-.23-26.69-.23-53.37-.35-80.06L302,320.22c.05-53.37.1-106.74.47-160.11l.56-80.05.44-40,.23-20Z"/><path class="cls-1" d="M680.71,0l.3,20,.23,20,.44,40,.56,80.05c.37,53.37.42,106.74.47,160.11l-.11,80.06c-.12,26.69-.13,53.37-.35,80.06l-.56,80.05-.45,40-.23,20-.3,20-.3-20-.23-20-.45-40-.56-80.05c-.23-26.69-.24-53.37-.36-80.06l-.1-80.06c0-53.37.1-106.74.47-160.11l.55-80.05.45-40,.23-20Z"/><path class="cls-1" d="M989.41,317.41l-61.84.53-61.84.45-123.67.55c-41.23.24-82.45.2-123.68.29l-123.68.18L371,319.23l-61.84-.09-30.92-.05L247.35,319l-123.67-.56-61.84-.45L0,317.41l61.84-.53,61.84-.45,123.67-.56,30.92-.13,30.92-.06,61.84-.09,123.67-.18,123.68.18c41.23.09,82.45.05,123.68.29l123.67.56,61.84.44Z"/><path class="cls-1" d="M989.41,422l-61.84.52-61.84.45-123.67.56c-41.23.24-82.45.19-123.68.28L494.7,424,371,423.84l-61.84-.1-30.92-.05-30.92-.14L123.68,423l-61.84-.45L0,422l61.84-.53,61.84-.46,123.67-.55,30.92-.14,30.92,0,61.84-.1L494.7,420l123.68.18c41.23.09,82.45,0,123.68.28l123.67.56,61.84.45Z"/><path class="cls-1" d="M989.41,526.62l-61.84.53-61.84.44-123.67.56c-41.23.24-82.45.2-123.68.29l-123.68.18L371,528.44l-61.84-.09-30.92-.05-30.92-.14-123.67-.56-61.84-.45L0,526.62l61.84-.53,61.84-.45,123.67-.56,30.92-.14,30.92-.05L371,524.8l123.67-.18,123.68.18c41.23.09,82.45.05,123.68.29l123.67.55,61.84.45Z"/></g></g></svg>